<svg id="Layer_2" xmlns="http://www.w3.org/2000/svg" viewBox="0 0 1336.55 320.97" height="28" style="display:block;width:auto"><defs><style>.cls-1{fill:#ff5844}.cls-2{fill:#020039}</style></defs><g id="Layer_1-2"><g><path class="cls-2" d="M321.74,134.92c2.46,17.6,1.97,34.94-1.11,51.49-8.77-17.66-20.67-33.35-34.88-46.43-22.2-20.48-50.06-34.59-80.47-40.02-15.75-2.83-32.2-3.32-48.9-1.13-.52.06-1.05.13-1.56.2-.51.07-1.04.15-1.56.23-30.27,5.05-51.47,32.6-48.76,63.02-1.83-16.59-1.04-32.9,2.05-48.51,5.78-29.3,19.65-56.11,39.47-77.62,13.73-14.9,30.32-27.26,49.04-36.15,48.2,9.85,89.56,41.59,111.49,85.73,7.5,15.07,12.73,31.59,15.2,49.19Z"/><path class="cls-2" d="M108.49,313.96c-17-5.18-32.51-12.94-46.23-22.7,19.72-.51,38.95-4.69,56.81-12.07,27.93-11.5,52.47-30.82,70.2-56.11,9.21-13.09,16.58-27.8,21.63-43.87.17-.49.32-1,.47-1.5.15-.5.31-1.01.44-1.51,8.18-29.57-7.87-60.41-36.6-70.78,15.82,5.33,30.28,12.92,43.13,22.3,24.13,17.59,42.6,41.47,53.76,68.51,7.72,18.73,11.94,38.98,12.11,59.71-29.24,39.56-75.46,63.69-124.72,64.98-16.83.45-34.01-1.76-51.01-6.95Z"/><path class="cls-2" d="M55.87,35.39c13.48-11.58,28.34-20.53,43.93-26.88-10.12,16.93-16.9,35.41-20.23,54.44-5.25,29.74-2.07,60.81,9.79,89.34,6.13,14.79,14.6,28.89,25.47,41.77.33.4.67.81,1.01,1.2.34.39.69.8,1.04,1.18,20.6,22.74,55.24,25.7,79.38,6.99-12.97,10.5-27.13,18.65-41.93,24.48-27.78,10.96-57.84,13.77-86.64,8.71-19.95-3.51-39.31-10.79-56.91-21.75C-6.99,169-2.62,117.04,22.68,74.75c8.63-14.45,19.7-27.78,33.18-39.36Z"/><path class="cls-1" d="M426.56,263.66c0-.44.29-.73.73-.73h.44c8.64,0,21.24-11.87,37.79-49.37l62.55-141.36c.15-.29.29-.59,1.03-.59s.88.29,1.03.59l82.32,163.62c8.5,16.85,16.26,27.1,26.81,27.1h1.03c.44,0,.73.29.73.73s-.29.73-.73.73h-74.71c-.44,0-.73-.29-.73-.73s.29-.73.73-.73h.44c8.79,0,12.6-3.22,12.6-8.79,0-3.52-1.46-8.06-4.1-13.33l-26.95-53.47c-2.93-5.71-6.15-6.74-9.67-6.74h-50.39c-4.39,0-6.88,2.49-9.38,8.06l-9.52,21.68c-4.69,10.84-6.74,20.21-6.74,27.98,0,15.67,8.35,24.61,19.78,24.61h1.03c.44,0,.73.29.73.73s-.29.73-.73.73h-55.37c-.44,0-.73-.29-.73-.73ZM541.26,176.36c0-1.03-.44-2.49-1.46-4.39l-28.86-57.42-26.22,59.18c-.59,1.32-.88,2.34-.88,3.08,0,1.9,1.76,2.34,4.1,2.34h49.07c2.34,0,4.25-.59,4.25-2.78Z"/><path class="cls-1" d="M603.83,263.66c0-.44.29-.73.73-.73h2.05c9.23,0,12.3-7.47,12.3-20.21v-94.34c0-12.74-2.05-17.29-12.74-17.29h-1.61c-.44,0-.73-.29-.73-.73s.29-.73.73-.73c17.14,0,32.96-.29,48.34-1.46.88,0,1.46.44,1.46,1.46v113.09c0,12.74,3.08,20.21,12.3,20.21h1.9c.44,0,.73.29.73.73s-.29.73-.73.73h-64.01c-.44,0-.73-.29-.73-.73ZM613.35,90.96c0-12.01,8.2-20.8,20.95-20.8s20.95,8.79,20.95,20.8-8.2,20.8-20.95,20.8-20.95-8.79-20.95-20.8Z"/><path class="cls-2" d="M671.81,171.82c0-59.47,41.02-100.2,104.01-100.2,22.85,0,45.12,6.45,55.96,6.45,8.64,0,12.16-3.66,12.16-13.04,0-1.76,0-2.93-.15-4.83,0-.44.29-.73.73-.73s.73.15.73.73l4.25,65.77c0,.59-.29.73-.73.73-.29,0-.59-.15-.73-.59-10.25-23.88-31.49-53.03-73.1-53.03-37.06,0-68.41,29.74-68.41,81.59s31.79,86.87,76.32,86.87c37.65,0,68.7-25.05,68.7-61.82,0-12.89-4.54-16.99-4.54-20.36,0-1.32.88-2.2,1.9-2.2,4.1,0,4.39,10.99,4.39,18.16,0,38.53-28.27,91.11-91.11,91.11-53.47,0-90.38-42.48-90.38-94.63Z"/><path class="cls-2" d="M863.56,263.66c0-.44.29-.73.73-.73h2.05c9.23,0,12.3-7.47,12.3-20.21V74.26c0-12.74-2.05-17.29-12.74-17.29h-1.61c-.44,0-.73-.29-.73-.73s.29-.73.73-.73c17.14,0,32.96-.29,48.34-1.46.88,0,1.46.44,1.46,1.46v187.21c0,12.74,3.08,20.21,12.3,20.21h1.9c.44,0,.73.29.73.73s-.29.73-.73.73h-64.01c-.44,0-.73-.29-.73-.73Z"/><path class="cls-2" d="M928.74,263.66c0-.44.29-.73.73-.73h2.05c9.23,0,12.3-7.47,12.3-20.21v-94.34c0-12.74-2.05-17.29-12.74-17.29h-1.61c-.44,0-.73-.29-.73-.73s.29-.73.73-.73c17.14,0,32.96-.29,48.34-1.46.88,0,1.46.44,1.46,1.46v113.09c0,12.74,3.08,20.21,12.3,20.21h1.9c.44,0,.73.29.73.73s-.29.73-.73.73h-64.01c-.44,0-.73-.29-.73-.73ZM938.26,90.96c0-12.01,8.2-20.8,20.95-20.8s20.95,8.79,20.95,20.8-8.2,20.8-20.95,20.8-20.95-8.79-20.95-20.8Z"/><path class="cls-2" d="M993.93,263.66c0-.44.29-.73.73-.73h2.2c9.23,0,12.3-7.47,12.3-20.21v-94.34c0-12.74-2.05-17.29-12.74-17.29h-1.61c-.44,0-.73-.29-.73-.73s.29-.73.73-.73c17.14,0,32.96-.29,48.34-1.46.88,0,1.46.44,1.46,1.46v3.81c0,6.45-.59,11.43-1.9,21.24h1.61c3.96-16.26,16.99-27.1,36.77-27.1,18.16,0,31.2,9.23,33.69,27.1h1.17c3.96-16.26,16.99-27.1,36.77-27.1s35.16,11.72,35.16,34.57v80.57c0,12.74,3.08,20.21,12.3,20.21h1.9c.44,0,.73.29.73.73s-.29.73-.73.73h-63.87c-.44,0-.73-.29-.73-.73s.29-.73.73-.73h1.9c9.23,0,12.3-7.47,12.3-20.21v-80.86c0-13.77-4.69-23.44-16.55-23.44-13.62,0-19.63,12.89-19.63,25.78v78.52c0,12.74,3.08,20.21,12.3,20.21h1.9c.44,0,.73.29.73.73s-.29.73-.73.73h-63.87c-.44,0-.73-.29-.73-.73s.29-.73.73-.73h1.9c9.23,0,12.3-7.47,12.3-20.21v-80.86c0-13.77-4.69-23.44-16.55-23.44-13.62,0-19.63,12.89-19.63,25.78v78.52c0,12.74,3.08,20.21,12.3,20.21h1.9c.44,0,.73.29.73.73s-.29.73-.73.73h-64.16c-.44,0-.73-.29-.73-.73Z"/><path class="cls-2" d="M1209.84,243.89c0-16.99,15.67-23.14,34.57-29.44,10.25-3.37,20.51-6.45,34.42-9.96v-31.93c0-25.63-12.45-39.4-32.67-39.4-14.65,0-27.25,9.52-27.25,21.83,0,9.96,4.69,13.33,13.48,15.67,7.76,2.05,15.67,5.57,15.67,16.99,0,8.5-6.74,15.38-16.99,15.38-13.33,0-22.12-11.28-22.12-27.25,0-37.06,30.62-48.19,52.29-48.19,35.16,0,53.03,19.48,53.03,47.31v70.31c0,7.18,3.08,10.55,8.06,10.55,9.08,0,12.74-12.16,12.74-23.44,0-14.36-5.57-18.6-5.57-21.68,0-1.03.59-1.9,1.61-1.9s2.05.88,2.93,3.08c.59,1.61,2.49,7.47,2.49,18.46,0,21.97-9.81,36.18-30.91,36.18-14.94,0-26.81-7.91-26.81-27.39v-15.97c-4.83,21.09-20.36,43.36-45.41,43.36-14.94,0-23.58-9.23-23.58-22.56ZM1255.4,242.13c11.57,0,18.9-8.64,21.83-17.58,1.03-3.08,1.61-6.3,1.61-9.08v-9.67c-10.25,2.78-22.41,6.15-32.67,9.67-1.76,3.81-2.78,8.94-2.78,13.33,0,8.64,4.25,13.33,12.01,13.33Z"/></g></g></svg>